<?xml version="1.0" encoding="UTF-8" standalone="no"?>
<!DOCTYPE svg PUBLIC "-//W3C//DTD SVG 1.1//EN" "http://www.w3.org/Graphics/SVG/1.1/DTD/svg11.dtd">
<svg width="100%" height="100%" viewBox="0 0 292 123" version="1.1" xmlns="http://www.w3.org/2000/svg" xmlns:xlink="http://www.w3.org/1999/xlink" xml:space="preserve" xmlns:serif="http://www.serif.com/" style="fill-rule:evenodd;clip-rule:evenodd;stroke-linejoin:round;stroke-miterlimit:2;">
    <g transform="matrix(1,0,0,1,0,-19.3543)">
        <path d="M291.063,122.432L263.975,122.432L223.827,19.354L291.009,19.354L291.063,122.432ZM249.868,49.448L259.431,23.678L251.345,23.678L245.632,42.224L239.831,23.678L231.499,23.678L241.238,49.448L249.868,49.448ZM287.503,49.448L283.654,41.977C283.466,41.602 283.094,41.069 282.537,40.378C281.981,39.686 281.556,39.235 281.263,39.024C280.829,38.708 280.138,38.391 279.189,38.075C280.372,37.805 281.304,37.465 281.984,37.055C283.05,36.411 283.888,35.57 284.497,34.533C285.107,33.496 285.411,32.262 285.411,30.833C285.411,29.192 285.013,27.8 284.216,26.658C283.419,25.515 282.37,24.733 281.07,24.311C279.769,23.889 277.888,23.678 275.427,23.678L262.156,23.678L262.156,49.448L270.154,49.448L270.154,38.989L270.857,38.989C271.584,38.989 272.234,39.188 272.808,39.587C273.23,39.891 273.71,40.553 274.249,41.573L278.503,49.448L287.503,49.448ZM273.652,28.881C275.105,28.882 276.095,29.104 276.622,29.549C277.15,29.995 277.413,30.633 277.413,31.465C277.413,32.028 277.246,32.526 276.912,32.96C276.578,33.393 276.148,33.663 275.62,33.768C274.577,34.003 273.874,34.12 273.511,34.12L270.154,34.12L270.154,28.881L273.652,28.881Z" style="fill:rgb(6,59,120);fill-rule:nonzero;"/>
    </g>
    <g transform="matrix(1,0,0,1,0,-19.3543)">
        <path d="M0.087,19.354L33.415,19.354L56.618,93.534L79.469,19.354L111.813,19.354L73.563,122.432L39.04,122.432L0.087,19.354Z" style="fill:rgb(6,59,120);fill-rule:nonzero;"/>
    </g>
    <g transform="matrix(1,0,0,1,0,-19.3546)">
        <rect x="123.555" y="19.354" width="31.922" height="103.078" style="fill:rgb(6,59,120);"/>
    </g>
    <g transform="matrix(1,0,0,1,0,-19.3543)">
        <path d="M241.751,105.416L205.469,105.416L200.477,122.432L167.923,122.432L206.665,19.354L220.759,19.354L259.501,122.432L246.813,122.432L241.751,105.416ZM235.071,83.127L223.68,46.073L212.36,83.127L235.071,83.127Z" style="fill:rgb(6,59,120);fill-rule:nonzero;"/>
    </g>
    <g>
        <text x="-0.123px" y="119.568px" style="font-family:'ArialMT', 'Arial', sans-serif;font-size:14px;fill:rgb(6,59,120);">T<tspan x="7.607px 16.124px 23.854px 32.37px 40.887px 49.403px 53.244px 61.76px 70.277px " y="119.568px 119.568px 119.568px 119.568px 119.568px 119.568px 119.568px 119.568px 119.568px ">echnology</tspan></text>
        <text x="82.259px" y="119.568px" style="font-family:'ArialMT', 'Arial', sans-serif;font-size:14px;fill:rgb(6,59,120);">P<tspan x="92.327px 96.168px 104.684px 109.304px 113.924px 122.441px 127.833px " y="119.568px 119.568px 119.568px 119.568px 119.568px 119.568px 119.568px ">latform</tspan></text>
        <text x="143.45px" y="119.568px" style="font-family:'ArialMT', 'Arial', sans-serif;font-size:14px;fill:rgb(6,59,120);">f<tspan x="148.07px 156.586px 161.979px 166.901px 176.716px 180.557px 185.949px 190.569px 199.086px 207.602px 211.443px 215.593px 225.661px 234.177px 241.907px 250.424px 258.94px 263.56px 272.077px 277.469px 285.986px " y="119.568px 119.568px 119.568px 119.568px 119.568px 119.568px 119.568px 119.568px 119.568px 119.568px 119.568px 119.568px 119.568px 119.568px 119.568px 119.568px 119.568px 119.568px 119.568px 119.568px 119.568px ">or Virtual Adventures</tspan></text>
    </g>
</svg>
